<svg width="1601" height="1081" viewBox="0 0 1601 1081" fill="none" xmlns="http://www.w3.org/2000/svg">
<rect width="1601" height="1081" fill="#F5F5F5"/>
<rect width="1601" height="1081" fill="#0E6FA2"/>
<path d="M-94.1986 1047.04C-55.0861 1070.78 -9.9827 1085.27 36.9656 1089.18C83.914 1093.1 131.201 1086.31 174.48 1069.45C217.759 1052.58 255.641 1026.18 284.645 992.671C313.649 959.159 332.844 919.613 340.465 877.666C348.086 835.72 343.888 792.719 328.259 752.617C312.629 712.515 286.069 676.598 251.019 648.167C215.969 619.737 173.555 599.705 127.674 589.914C81.7931 580.123 33.9182 580.886 -11.5502 592.133L6.96642 652.971C41.123 644.523 77.0874 643.949 111.554 651.305C146.02 658.66 177.883 673.708 204.213 695.066C230.543 716.423 250.495 743.404 262.236 773.53C273.978 803.655 277.131 835.958 271.406 867.469C265.681 898.98 251.261 928.688 229.473 953.863C207.685 979.037 179.227 998.87 146.715 1011.54C114.203 1024.21 78.6806 1029.31 43.4123 1026.36C8.14392 1023.42 -25.7385 1012.54 -55.1204 994.705L-94.1986 1047.04Z" fill="url(#paint0_linear_0_1)" fill-opacity="0.2"/>
<path d="M964.457 81.3207C964.457 86.9257 959.383 91.6414 952.9 91.6414C946.417 91.6414 941.343 86.9257 941.343 81.3207C941.343 75.7157 946.417 71 952.9 71C959.383 71 964.457 75.7157 964.457 81.3207Z" stroke="#FFCD00" stroke-width="2"/>
<path d="M824.115 373.321C824.115 378.926 819.04 383.641 812.557 383.641C806.074 383.641 801 378.926 801 373.321C801 367.716 806.074 363 812.557 363C819.04 363 824.115 367.716 824.115 373.321Z" stroke="#FFCD00" stroke-width="2"/>
<rect x="1.46709" y="0.213733" width="27.1139" height="26.264" transform="matrix(0.830304 -0.557311 0.636782 0.771044 1372.43 249.204)" stroke="#05BB75" stroke-width="2"/>
<rect x="1.10928" y="0.901032" width="28.108" height="25.2025" transform="matrix(0.995713 -0.0924992 0.113563 0.993531 176.285 116.846)" stroke="#05BB75" stroke-width="2"/>
<path d="M452.238 114.425L484.177 116.534L466.181 140.416L452.238 114.425Z" stroke="#FF6464" stroke-width="2"/>
<path d="M452.238 114.425L484.177 116.534L466.181 140.416L452.238 114.425Z" stroke="#FF6464" stroke-width="2"/>
<path d="M860.181 785.444L892.121 787.553L874.125 811.435L860.181 785.444Z" stroke="#FF6464" stroke-width="2"/>
<path d="M210.01 276.942C210.01 273.838 207.185 271.15 203.476 271.15C199.767 271.15 196.941 273.838 196.941 276.942C196.941 280.047 199.767 282.735 203.476 282.735C207.185 282.735 210.01 280.047 210.01 276.942Z" stroke="#FFCD00" stroke-width="2"/>
<path d="M157.772 420.489C157.772 413.633 151.573 407.904 143.703 407.904C135.833 407.904 129.634 413.633 129.634 420.489C129.634 427.344 135.833 433.074 143.703 433.074C151.573 433.074 157.772 427.344 157.772 420.489Z" stroke="#FF6464" stroke-width="2"/>
<defs>
<linearGradient id="paint0_linear_0_1" x1="80.4137" y1="1105.62" x2="74.6983" y2="573.53" gradientUnits="userSpaceOnUse">
<stop stop-color="#05BB75"/>
<stop offset="0.305208" stop-color="#212C4F"/>
<stop offset="0.669792" stop-color="#FF6464"/>
<stop offset="1" stop-color="#FFCD00"/>
</linearGradient>
</defs>
</svg>
